<?xml version="1.0" encoding="UTF-8"?>
<svg width="451px" height="515px" viewBox="0 0 451 515" version="1.1" xmlns="http://www.w3.org/2000/svg" xmlns:xlink="http://www.w3.org/1999/xlink">
    <title>face-outline</title>
    <g id="face-outline" stroke="none" stroke-width="1" fill="none" fill-rule="evenodd">
        <path d="M371.816,356.424 L301.864,342.44 C294.408,340.968 289,334.376 289,326.792 L289,310.728 C293.608,304.328 297.896,295.752 302.408,286.824 C305.832,280.072 310.984,269.864 313.288,267.496 C326.856,254.216 341.32,237.768 345.736,216.264 C349.768,196.808 345.768,186.696 341.096,178.696 C341.096,163.048 341.096,134.376 335.656,113.768 C335.08,88.808 330.536,74.728 319.016,62.248 C310.888,53.448 298.92,51.432 289.32,49.8 C285.512,49.16 280.296,48.296 278.472,47.272 C261.896,38.056 245.032,33.512 224.392,33 C182.152,34.6 130.312,61.384 112.968,109.544 C107.688,124.168 108.2,148.168 108.584,167.464 L108.136,178.696 C104.072,186.696 100.072,196.808 104.104,216.232 C108.52,237.8 122.984,254.248 136.488,267.464 C138.824,269.896 144.04,280.136 147.496,286.888 C152.04,295.784 156.392,304.328 161,310.728 L161,326.792 C161,334.376 155.592,340.968 148.168,342.472 L78.184,356.456 C33.448,365.416 1,405 1,450.6 L1,481 C1,498.664 15.368,513 33,513 L417,513 C434.664,513 449,498.664 449,481 L449,450.6 C449,405 416.52,365.416 371.816,356.424 Z" id="Path" stroke="#000000" fill-rule="nonzero"></path>
        <path d="M321.805908,350.497803 C279.096645,382.603526 206.690268,449.456498 153.368408,396.375244 C141.579421,384.639453 130.416892,368.084478 122.715088,353.07959 C122.517667,352.694969 123.537354,352.812174 123.948486,352.678467" id="Path-8" stroke="#000000"></path>
        <path d="M81,1 L17,1 C8.168,1 1,8.168 1,17 L1,113 C1,121.832 8.168,129 17,129 C25.832,129 33,121.832 33,113 L33,33 L81,33 C89.832,33 97,25.832 97,17 C97,8.168 89.832,1 81,1 Z" id="Path" stroke="#000000" fill-rule="nonzero"></path>
        <path d="M81,289 L33,289 L33,209 C33,200.168 25.832,193 17,193 C8.168,193 1,200.168 1,209 L1,305 C1,313.832 8.168,321 17,321 L81,321 C89.832,321 97,313.832 97,305 C97,296.168 89.832,289 81,289 Z" id="Path" stroke="#000000" fill-rule="nonzero"></path>
        <path d="M433,1 L369,1 C360.168,1 353,8.168 353,17 C353,25.832 360.168,33 369,33 L417,33 L417,113 C417,121.832 424.168,129 433,129 C441.832,129 449,121.832 449,113 L449,17 C449,8.168 441.832,1 433,1 Z" id="Path" stroke="#000000" fill-rule="nonzero"></path>
        <path d="M433,193 C424.168,193 417,200.168 417,209 L417,289 L369,289 C360.168,289 353,296.168 353,305 C353,313.832 360.168,321 369,321 L433,321 C441.832,321 449,313.832 449,305 L449,209 C449,200.168 441.832,193 433,193 Z" id="Path" stroke="#000000" fill-rule="nonzero"></path>
        <path d="M107.736328,180.317383 C137.981741,171.742467 134.463674,192.937811 139.759766,215.268677 C145.179098,238.119184 147.005182,211.969906 144.250732,252.501099 C143.617492,261.819101 133.676429,263.779537 127.597168,259.570923" id="Path-2" stroke="#000000"></path>
        <path d="M341.856201,181.216797 C340.070719,178.181885 339.702518,173.575259 336.499756,172.112061 C320.293097,164.707966 306.726503,196.940259 305.752441,207.220093 C304.368297,221.82777 303.715837,236.506805 303.400024,251.176514 C303.271145,257.163039 315.917483,269.610163 317.613525,259.773315" id="Path-3" stroke="#000000"></path>
        <path d="M167.932251,146.087036 C177.036021,146.005088 218.468265,151.43197 205.289795,168.258179 C196.955182,178.899773 158.515852,177.039443 151.816895,163.242188 C147.655555,154.671441 161.805921,144.246381 169.149414,148.194092" id="Path-4" stroke="#000000"></path>
        <path d="M236.188721,153.833252 C263.263894,142.574851 259.135852,140.293862 286.91333,142.648193 C295.146837,143.346039 292.747125,160.005039 286.218872,163.259399 C275.037451,168.833383 258.860196,173.677192 246.259033,171.025146 C234.801519,168.613794 234.465119,157.310787 242.766235,152.042969" id="Path-5" stroke="#000000"></path>
        <path d="M211.040894,196.539062 C211.160238,202.918335 212.153472,209.341264 211.398926,215.67688 C208.888308,236.757507 197.905943,242.017621 223.743896,243.612427 C228.932057,243.932657 234.242024,244.016791 239.32251,242.917603 C253.697424,239.807518 234.933222,214.307201 233.429077,210.134399 C231.756018,205.492995 229.594981,200.308041 230.901855,195.550537 L230.901855,191.34314 C231.003904,190.971647 231.672363,191.34314 232.057617,191.34314" id="Path-6" stroke="#000000"></path>
        <path d="M184.384888,254.079224 C205.586079,272.280513 231.149029,268.957011 259.109863,272.388794" id="Path-7" stroke="#000000"></path>
        <path d="M204.140625,139.539795 C188.017001,126.641056 166.000873,127.735369 147.412354,119.835205" id="Path-9" stroke="#000000"></path>
        <path d="M240.042236,131.562256 C281.246983,127.609434 262.278224,128.557541 296.903809,127.932373" id="Path-10" stroke="#000000"></path>
        <path d="M257.916748,154.005615 C262.241781,153.937093 270.891846,149.474474 270.891846,153.800049 L273.631348,155.756836 C273.631348,162.612156 271.787674,172.361886 262.672852,168.477051 C249.422423,162.829576 255.923726,142.550191 270.304688,156.931152" id="Path-11" stroke="#000000"></path>
        <path d="M171.451904,153.654785 C174.654053,153.090169 178.681297,149.742342 181.05835,151.960938 L184.385254,152.743652 C188.936392,156.991407 191.528573,172.158411 183.634277,173.405518 C159.962706,177.145049 149.8399,148.404538 178.982666,154.452881" id="Path-12" stroke="#000000"></path>
    </g>
</svg>